<svg style='display: none;' xmlns="http://www.w3.org/2000/svg">
    <symbol viewBox="0 0 19 19" id='search'>
        <path d="M8 16C9.77498 15.9996 11.4988 15.4054 12.897 14.312L17.293 18.708L18.707 17.294L14.311 12.898C15.405 11.4997 15.9996 9.77544 16 8C16 3.589 12.411 0 8 0C3.589 0 0 3.589 0 8C0 12.411 3.589 16 8 16ZM8 2C11.309 2 14 4.691 14 8C14 11.309 11.309 14 8 14C4.691 14 2 11.309 2 8C2 4.691 4.691 2 8 2Z" fill="#DBDBDB"/>
    </symbol>
    <symbol viewBox="0 0 20 22" id='user'>
        <path d="M14 13.0625C12.7188 13.0625 12.1027 13.75 10 13.75C7.89732 13.75 7.28571 13.0625 6 13.0625C2.6875 13.0625 0 15.6492 0 18.8375V19.9375C0 21.0762 0.959821 22 2.14286 22H17.8571C19.0402 22 20 21.0762 20 19.9375V18.8375C20 15.6492 17.3125 13.0625 14 13.0625ZM17.8571 19.9375H2.14286V18.8375C2.14286 16.7922 3.875 15.125 6 15.125C6.65179 15.125 7.70982 15.8125 10 15.8125C12.308 15.8125 13.3438 15.125 14 15.125C16.125 15.125 17.8571 16.7922 17.8571 18.8375V19.9375ZM10 12.375C13.5491 12.375 16.4286 9.60352 16.4286 6.1875C16.4286 2.77148 13.5491 0 10 0C6.45089 0 3.57143 2.77148 3.57143 6.1875C3.57143 9.60352 6.45089 12.375 10 12.375ZM10 2.0625C12.3616 2.0625 14.2857 3.91445 14.2857 6.1875C14.2857 8.46055 12.3616 10.3125 10 10.3125C7.63839 10.3125 5.71429 8.46055 5.71429 6.1875C5.71429 3.91445 7.63839 2.0625 10 2.0625Z" fill="#808080"/>
    </symbol>
    <symbol viewBox="0 0 48 48" id='gift'>
        <g clip-path="url(#clip0_3048_2281)">
        <path d="M21.0169 10.8821C21.2677 10.8821 21.5041 10.7637 21.6539 10.5626C21.8041 10.3616 21.8507 10.1019 21.7793 9.86119C21.2094 7.91526 20.2246 6.11605 18.892 4.58819C17.8183 3.44578 16.2202 2.95668 14.6912 3.30254C14.48 3.38328 14.3135 3.5502 14.2327 3.76137C14.1889 3.88015 14.1563 4.00281 14.1357 4.12781C14.1112 4.27609 14.098 4.42593 14.0957 4.57615V4.58896C14.1054 5.85675 14.6162 7.06942 15.5172 7.96184C17.0451 9.29329 18.8431 10.2777 20.7879 10.8472C20.8624 10.8693 20.9393 10.8813 21.0169 10.8821ZM16.6445 6.83612C16.3289 6.52015 16.0812 6.14245 15.9163 5.7271V5.71934C15.8813 5.63122 15.851 5.54271 15.825 5.4577C15.8114 5.41151 15.8017 5.36803 15.7901 5.32262C15.7781 5.2772 15.7676 5.24304 15.7598 5.20345C15.7517 5.16347 15.7501 5.14755 15.7447 5.11921C15.7214 5.00043 15.7051 4.88048 15.6962 4.75976C16.4803 4.81915 17.2167 5.15764 17.7725 5.7139C18.5628 6.60749 19.1998 7.62568 19.6575 8.72771C18.5543 8.2685 17.5346 7.62917 16.6406 6.83612H16.6445Z" fill="black"/>
        <path d="M45.4157 11.4305H33.1443C33.6749 11.068 34.1733 10.66 34.6333 10.2117C37.4771 7.35934 37.5703 3.03465 35.7536 1.21798C33.9369 -0.59869 29.6138 -0.50708 26.7584 2.33981C25.5907 3.61071 24.642 5.06637 23.9511 6.64781C23.2601 5.06521 22.3106 3.60877 21.1418 2.33748C18.2895 -0.506303 13.9652 -0.599466 12.1481 1.2172C10.3307 3.03387 10.4246 7.35856 13.2688 10.2117C13.7292 10.66 14.2276 11.068 14.7579 11.4305H2.48639C2.04737 11.4305 1.69141 11.7865 1.69141 12.2255V20.1754C1.69141 20.6144 2.04737 20.9704 2.48639 20.9704H4.07637V44.025C4.07909 46.219 5.85733 47.9972 8.05131 48H39.8508C42.0452 47.9972 43.8234 46.219 43.8258 44.025V20.9704H45.4157C45.8548 20.9704 46.2107 20.6144 46.2107 20.1754V12.2255C46.2107 11.7865 45.8548 11.4305 45.4157 11.4305ZM27.8833 3.4632C30.1681 1.18537 33.5006 1.21177 34.6302 2.34137C35.7598 3.47096 35.787 6.80191 33.5092 9.0875C32.4661 10.0517 31.2752 10.8425 29.9818 11.4305H25.2313C25.2313 11.4138 25.2313 11.3956 25.2313 11.3789C25.2313 11.1976 25.2177 11.014 25.2002 10.8293C25.1936 10.7683 25.1866 10.7078 25.1796 10.6456C25.1614 10.4931 25.1389 10.3409 25.1117 10.1895C25.1032 10.1364 25.0942 10.0828 25.0849 10.0304C25.0469 9.83241 25.0054 9.63755 24.9576 9.44928C24.9514 9.42211 24.944 9.39843 24.9378 9.36971C24.8955 9.20512 24.852 9.05179 24.8074 8.89302C24.8012 8.87129 24.7953 8.84761 24.7891 8.82587C25.4405 6.84461 26.494 5.01863 27.8833 3.4632ZM27.131 19.3804H20.7711V13.0205H27.131V19.3804ZM14.3937 9.08828C12.1155 6.80269 12.1423 3.47174 13.2723 2.34137C14.4019 1.21099 17.7328 1.1846 20.0169 3.46087C21.4632 5.08112 22.5474 6.99173 23.1968 9.0646C23.2865 9.3437 23.3556 9.61154 23.4208 9.87162C23.4391 9.94615 23.4542 10.0184 23.4701 10.0917C23.5132 10.2858 23.5477 10.471 23.5738 10.6484C23.5823 10.7085 23.5936 10.7706 23.6005 10.8293C23.6258 11.0276 23.6394 11.2275 23.6413 11.4274H17.9203C16.6277 10.8405 15.4372 10.051 14.3937 9.08828ZM3.28138 13.0205H19.1811V19.3804H3.28138V13.0205ZM5.66634 44.025V20.9704H20.7711V46.41H8.05131C6.73422 46.41 5.66634 45.3421 5.66634 44.025ZM22.3611 46.41V20.9704H25.541V46.41H22.3611ZM42.2358 44.025C42.2358 45.3421 41.1683 46.41 39.8508 46.41H27.131V20.9704H42.2358V44.025ZM44.6207 19.3804H28.721V13.0205H44.6207V19.3804Z" fill="black"/>
        <path d="M26.8829 10.8843C26.9594 10.8843 27.0355 10.8735 27.1089 10.8517C29.056 10.2827 30.8559 9.2963 32.3834 7.96097C33.5146 6.87912 34.0021 5.28759 33.6714 3.75779C33.5914 3.54739 33.4249 3.38125 33.2145 3.3009C31.6847 2.97017 30.0932 3.45773 29.0113 4.58888C27.6764 6.11635 26.69 7.91633 26.1206 9.86343C26.0495 10.1041 26.0957 10.3642 26.2459 10.5649C26.3962 10.7659 26.6322 10.8843 26.8829 10.8843ZM30.1355 5.71304C30.6921 5.15717 31.4293 4.81906 32.2134 4.7589C32.154 5.5434 31.8155 6.28094 31.2596 6.83759C30.3653 7.63335 29.344 8.27385 28.2385 8.73306C28.6981 7.62753 29.3393 6.60701 30.1355 5.71304Z" fill="black"/>
        </g>
        <defs>
        <clipPath id="clip0_3048_2281">
        <rect width="48" height="48" fill="white"/>
        </clipPath>
        </defs>
    </symbol>
    <symbol viewBox="0 0 60 60" id='truck'>
        <path d="M55.7998 27.1129L54.246 20.8979C54.6708 20.8076 54.9895 20.4308 54.9895 19.9792V18.9772C54.9895 16.8015 53.2194 15.0315 51.0438 15.0315H43.9666V12.9645C43.9666 11.8939 43.0957 11.0229 42.0251 11.0229H5.94984C4.87922 11.0229 4.00828 11.8939 4.00828 12.9645V30.0001C4.00828 30.5188 4.42887 30.9396 4.94777 30.9396C5.46656 30.9396 5.88727 30.519 5.88727 30.0001V12.9645C5.88727 12.9299 5.91527 12.9019 5.94984 12.9019H42.025C42.0595 12.9019 42.0875 12.9299 42.0875 12.9645V30.0003C42.0875 30.5191 42.5081 30.9398 43.027 30.9398C43.5458 30.9398 43.9665 30.5192 43.9665 30.0003V28.9353H55.0488C55.0498 28.9353 55.0505 28.9355 55.0513 28.9355C55.0522 28.9355 55.053 28.9354 55.0539 28.9354C56.4176 28.9363 57.5755 29.8314 57.9732 31.0648H55.052C54.5332 31.0648 54.1125 31.4854 54.1125 32.0043V34.0085C54.1125 35.6316 55.433 36.9521 57.0561 36.9521H58.1209V41.0856H55.6644C54.8575 38.7556 52.6425 37.0772 50.0415 37.0772C47.4405 37.0772 45.2255 38.7556 44.4186 41.0856H43.9663V34.0083C43.9663 33.4896 43.5457 33.0688 43.0268 33.0688C42.508 33.0688 42.0873 33.4894 42.0873 34.0083V41.0854H22.5957C21.7888 38.7554 19.5738 37.077 16.9729 37.077C14.3719 37.077 12.1568 38.7554 11.35 41.0854H5.94984C5.91527 41.0854 5.88727 41.0574 5.88727 41.0228V38.956H9.95824C10.477 38.956 10.8977 38.5354 10.8977 38.0165C10.8977 37.4976 10.4771 37.077 9.95824 37.077H0.939492C0.420703 37.077 0 37.4976 0 38.0165C0 38.5354 0.420586 38.956 0.939492 38.956H4.0084V41.0228C4.0084 42.0935 4.87934 42.9644 5.94996 42.9644H11.0246C11.0244 42.9853 11.023 43.006 11.023 43.027C11.023 46.3078 13.6922 48.9768 16.9729 48.9768C20.2535 48.9768 22.9227 46.3078 22.9227 43.027C22.9227 43.0059 22.9213 42.9853 22.9211 42.9644H44.0933C44.0931 42.9853 44.0917 43.006 44.0917 43.027C44.0917 46.3078 46.7609 48.9768 50.0415 48.9768C53.3222 48.9768 55.9914 46.3078 55.9914 43.027C55.9914 43.0059 55.99 42.9853 55.9897 42.9644H59.0604C59.5792 42.9644 59.9999 42.5438 59.9999 42.0249V32.0041C60 29.53 58.1746 27.4744 55.7998 27.1129ZM43.9666 16.9103H51.0438C52.1835 16.9103 53.1107 17.8375 53.1107 18.9772V19.0397H43.9666V16.9103ZM43.9666 27.0564V20.9186H52.3145L53.8489 27.0564H43.9666ZM16.9729 47.0982C14.7281 47.0982 12.9019 45.2721 12.9019 43.0272C12.9019 40.7824 14.7281 38.9562 16.9729 38.9562C19.2176 38.9562 21.0438 40.7824 21.0438 43.0272C21.0438 45.2721 19.2176 47.0982 16.9729 47.0982ZM50.0418 47.0982C47.797 47.0982 45.9708 45.2721 45.9708 43.0272C45.9708 40.7824 47.797 38.9562 50.0418 38.9562C52.2865 38.9562 54.1127 40.7824 54.1127 43.0272C54.1127 45.2721 52.2865 47.0982 50.0418 47.0982ZM58.1211 35.0731H57.0564C56.4693 35.0731 55.9916 34.5955 55.9916 34.0083V32.9436H58.121V35.0731H58.1211Z" fill="black"/>
        <path d="M16.9728 41.0858C15.9022 41.0858 15.0312 41.9568 15.0312 43.0274C15.0312 44.098 15.9022 44.9689 16.9728 44.9689C18.0434 44.9689 18.9144 44.098 18.9144 43.0274C18.9144 41.9568 18.0434 41.0858 16.9728 41.0858Z" fill="black"/>
        <path d="M50.0412 41.0858C48.9706 41.0858 48.0996 41.9568 48.0996 43.0274C48.0996 44.098 48.9706 44.9689 50.0412 44.9689C51.1118 44.9689 51.9827 44.098 51.9827 43.0274C51.9827 41.9568 51.1118 41.0858 50.0412 41.0858Z" fill="black"/>
        <path d="M39.0195 37.0774H24.9903C24.4715 37.0774 24.0508 37.498 24.0508 38.0169C24.0508 38.5358 24.4714 38.9564 24.9903 38.9564H39.0195C39.5383 38.9564 39.959 38.5358 39.959 38.0169C39.959 37.498 39.5384 37.0774 39.0195 37.0774Z" fill="black"/>
        <path d="M14.9685 33.0691H2.9434C2.42461 33.0691 2.00391 33.4897 2.00391 34.0086C2.00391 34.5275 2.42449 34.9481 2.9434 34.9481H14.9685C15.4873 34.9481 15.908 34.5275 15.908 34.0086C15.908 33.4897 15.4873 33.0691 14.9685 33.0691Z" fill="black"/>
        <path d="M32.6681 20.3167C32.3013 19.9499 31.7064 19.9499 31.3396 20.3168L22.985 28.6712L18.6389 24.3251C18.272 23.9582 17.6771 23.9582 17.3103 24.3251C16.9434 24.692 16.9434 25.2867 17.3103 25.6537L22.3208 30.6641C22.5042 30.8476 22.7447 30.9393 22.985 30.9393C23.2254 30.9393 23.466 30.8476 23.6492 30.6641L32.668 21.6454C33.0349 21.2783 33.0349 20.6836 32.6681 20.3167Z" fill="black"/>
    </symbol>
    <symbol viewBox="0 0 60 60" id='money-back'>
        <path d="M59.1687 34.8604C58.328 33.6857 56.9274 32.8963 55.5138 32.8003C54.3598 32.7226 53.3141 33.1122 52.5702 33.8997C52.407 34.0724 52.2309 34.2622 52.0445 34.4654C51.2215 33.7114 50.143 33.2262 49.0558 33.1524C47.9013 33.0751 46.856 33.4645 46.1122 34.2519C44.493 35.9659 41.6259 39.3142 39.3743 41.9797C39.0806 41.8061 38.7664 41.6628 38.4341 41.5554C37.3578 41.0919 22.5214 34.7557 15.9451 34.7557C5.32183 34.7557 0.44141 40.4657 0.238908 40.7086C-0.0717575 41.0815 -0.0213667 41.6345 0.350471 41.9462C0.722427 42.258 1.27743 42.2092 1.59032 41.8382C1.60157 41.8249 2.7417 40.4899 5.07046 39.1745C7.21688 37.9623 10.846 36.5169 15.9449 36.5169C22.263 36.5169 37.6216 43.123 37.776 43.1897C38.0583 43.3115 38.3496 43.4046 38.6074 43.5766C38.8508 43.7391 39.0686 43.9396 39.2512 44.1682C39.6058 44.6125 39.8279 45.1621 39.8745 45.729C39.9726 46.9169 39.3059 48.0645 38.2298 48.5718C37.5512 48.8917 36.8337 48.9013 36.1208 48.706L26.5118 46.0595C26.0491 45.932 25.5562 46.2122 25.4289 46.6746C25.3015 47.1373 25.5814 47.6301 26.044 47.7575L35.6396 50.4003C36.8055 50.7599 38.0796 50.6423 39.1598 50.0758C40.257 49.5005 41.0646 48.5322 41.4335 47.3496C41.554 46.9639 41.6219 46.5702 41.6403 46.1768L44.2175 45.9054C44.4456 45.8814 44.6553 45.7694 44.8022 45.5931C44.8657 45.5168 51.1851 37.9304 53.8506 35.109C54.9585 33.9357 56.9367 34.7674 57.7367 35.8851C58.9669 37.6039 57.4381 39.4802 56.9403 40.0145C54.4939 42.6393 50.0078 48.0471 49.2014 49.0219L30.9431 58.151L21.5492 54.1957C21.107 54.0094 20.5821 54.2231 20.3959 54.6656C20.2097 55.1079 20.4234 55.6326 20.8657 55.8188L30.6331 59.9313C30.8679 60.0303 31.1408 60.0213 31.3687 59.9074L50.1557 50.5138C50.2656 50.4589 50.3628 50.3815 50.441 50.2866C50.4926 50.2241 55.6277 44.0061 58.2289 41.2151C60.1435 39.1611 60.504 36.7257 59.1687 34.8604ZM43.6779 44.1915L41.3832 44.4332C41.2206 43.9726 40.9859 43.5399 40.6902 43.1514C42.6082 40.881 45.7249 37.2268 47.3924 35.4617C47.8741 34.9516 48.4976 34.8794 48.9361 34.91C49.6265 34.957 50.3344 35.2827 50.8668 35.7752C48.2247 38.7579 44.6276 43.054 43.6779 44.1915Z" fill="black"/>
        <path d="M17.2245 52.3757L13.4673 50.7937C13.3591 50.7481 13.2429 50.7247 13.1255 50.7247H0.913872C0.427541 50.7247 0.0332031 51.1189 0.0332031 51.6053C0.0332031 52.0918 0.427541 52.486 0.913872 52.486H12.9476L16.5408 53.9989C17.0135 54.198 17.5676 53.9392 17.7224 53.452C17.8583 53.0242 17.6377 52.5496 17.2245 52.3757Z" fill="black"/>
        <path d="M30.0347 16.9084H29.0953C28.027 16.9084 27.1579 16.0392 27.1579 14.971C27.1579 13.9027 28.0271 13.0335 29.0953 13.0335H32.8527C33.3391 13.0335 33.7334 12.6393 33.7334 12.1529C33.7334 11.6664 33.3391 11.2722 32.8527 11.2722H30.9152V10.2741C30.9152 9.78765 30.521 9.39343 30.0346 9.39343C29.5482 9.39343 29.1539 9.78765 29.1539 10.2741V11.2722H29.0952C27.0558 11.2722 25.3965 12.9315 25.3965 14.9709C25.3965 17.0103 27.0558 18.6696 29.0952 18.6696H30.0346C31.1028 18.6696 31.972 19.5388 31.972 20.6069C31.972 21.6751 31.1028 22.5443 30.0346 22.5443H26.2772C25.7908 22.5443 25.3965 22.9385 25.3965 23.425C25.3965 23.9114 25.7908 24.3056 26.2772 24.3056H29.1539V25.3037C29.1539 25.7902 29.5482 26.1844 30.0346 26.1844C30.521 26.1844 30.9152 25.7902 30.9152 25.3037V24.199C32.5308 23.8028 33.7332 22.3431 33.7332 20.6071C33.7334 18.5676 32.0741 16.9084 30.0347 16.9084Z" fill="black"/>
    </symbol>
    <symbol viewBox="0 0 50 54" id='headphones'>
        <path d="M5.48426 22.3218H5.61794V19.047C5.61794 8.52765 14.1455 0 24.665 0C35.1845 0 43.712 8.52765 43.712 19.047V22.3218H44.5139C47.4545 22.3218 49.7268 24.9281 49.7268 27.9357V36.2896C49.8008 39.2045 47.4978 41.6276 44.5829 41.7016C44.5598 41.7023 44.5369 41.7027 44.5139 41.7029H39.5684C38.8679 41.67 38.3267 41.0754 38.3597 40.3749C38.3608 40.3497 38.3628 40.3245 38.3654 40.2994V23.9256C38.3654 23.1237 38.8332 22.3216 39.5684 22.3216H41.0387V19.0469C41.0387 10.004 33.7079 2.67314 24.665 2.67314C15.622 2.67314 8.29121 10.004 8.29121 19.0469V22.3216H9.76152C10.4967 22.3216 10.9645 23.1236 10.9645 23.9256V40.2994C11.0391 40.9967 10.5343 41.6225 9.83699 41.697C9.81192 41.6997 9.78672 41.7016 9.76152 41.7028H8.22443L8.3581 41.9032C10.3635 44.5685 13.5103 46.1295 16.8457 46.1136C17.5759 42.5333 21.0704 40.2226 24.6508 40.9529C27.7125 41.5773 29.92 44.2588 29.9447 47.3835C29.9081 51.0484 26.9266 54 23.2616 53.9997C21.4473 53.9703 19.7179 53.2258 18.4497 51.928C17.5941 51.0517 17.0334 49.9302 16.8457 48.72C12.6689 48.7358 8.72984 46.7787 6.21954 43.4403L4.94968 41.569C2.07596 41.3685 0.271519 39.5641 0.271519 36.9576V28.6037C0.271389 25.7302 2.40996 22.3218 5.48426 22.3218ZM41.0387 39.0297H44.5139C45.953 38.9946 47.0912 37.7997 47.0562 36.3606C47.0556 36.3369 47.0547 36.3133 47.0535 36.2895V27.9355C47.0535 26.3985 45.9842 24.9949 44.5139 24.9949H41.0387V39.0297ZM20.3877 50.0569C21.1284 50.8599 22.169 51.3198 23.2614 51.3267C25.4358 51.2922 27.2003 49.5571 27.2713 47.3836C27.2722 45.2059 25.5076 43.4398 23.3299 43.4389C21.1522 43.438 19.3861 45.2027 19.3852 47.3804C19.3852 47.3814 19.3852 47.3826 19.3852 47.3836C19.3295 48.3759 19.6934 49.3459 20.3877 50.0569ZM2.94466 36.9579C2.94466 38.7623 4.68233 39.0297 5.48426 39.0297H8.29121V24.995H5.48426C4.01394 24.995 2.94466 27.0668 2.94466 28.6039V36.9579Z" fill="black"/>
    </symbol>
</svg>